<svg xmlns="http://www.w3.org/2000/svg" viewBox="0 0 320 220" role="img" aria-labelledby="title desc">
  <title id="title">Question lab</title>
  <desc id="desc">Question cards, validation checks, and a clean generation workspace.</desc>
  <defs>
    <filter id="shadow" x="-12%" y="-16%" width="124%" height="136%" color-interpolation-filters="sRGB">
      <feDropShadow dx="0" dy="8" stdDeviation="9" flood-color="#0f0f0f" flood-opacity=".08"/>
    </filter>
    <style>
      .paper{fill:#fff;stroke:#e5e3df;stroke-width:1.2}
      .ink{fill:#37352f}
      .muted{fill:#787671}
      .line{fill:none;stroke:#37352f;stroke-width:2.1;stroke-linecap:round;stroke-linejoin:round}
    </style>
  </defs>
  <rect x="20" y="26" width="280" height="168" rx="10" fill="#f7f6f3"/>
  <g filter="url(#shadow)">
    <rect x="54" y="50" width="102" height="112" rx="10" class="paper"/>
    <rect x="74" y="72" width="50" height="9" rx="4.5" class="ink"/>
    <rect x="74" y="96" width="62" height="7" rx="3.5" class="muted" opacity=".4"/>
    <rect x="74" y="112" width="46" height="7" rx="3.5" class="muted" opacity=".28"/>
    <path d="M82 140l9 9 18-23" class="line" stroke="#2a9d99"/>
  </g>
  <g filter="url(#shadow)">
    <rect x="132" y="40" width="104" height="128" rx="10" fill="#fef7d6" stroke="#eadfbf"/>
    <rect x="153" y="64" width="52" height="9" rx="4.5" class="ink"/>
    <path d="M153 92h60M153 108h42M153 124h52" class="line" opacity=".36"/>
    <circle cx="214" cy="146" r="14" fill="#f5d75e"/>
    <path d="M211 146h7M214 139v14" class="line"/>
  </g>
  <g filter="url(#shadow)">
    <rect x="218" y="86" width="50" height="50" rx="9" fill="#dcecfa" stroke="#bddbea"/>
    <path d="M238 103c0-8 14-7 14 1 0 9-10 8-10 17M242 129h.1" class="line"/>
  </g>
</svg>
