<svg xmlns="http://www.w3.org/2000/svg" viewBox="0 0 960 560" role="img" aria-labelledby="title desc">
  <title id="title">SparkWeave learning workspace mockup</title>
  <desc id="desc">A Notion-inspired product workspace illustration with notes, learning tasks and agent cards.</desc>
  <defs>
    <filter id="shadow" x="-15%" y="-20%" width="130%" height="145%">
      <feDropShadow dx="0" dy="26" stdDeviation="24" flood-color="#0f0f0f" flood-opacity="0.24"/>
    </filter>
    <linearGradient id="navy" x1="0" y1="0" x2="1" y2="1">
      <stop offset="0" stop-color="#0a1530"/>
      <stop offset="1" stop-color="#1a2a52"/>
    </linearGradient>
  </defs>
  <rect width="960" height="560" rx="28" fill="url(#navy)"/>
  <g opacity="0.95">
    <rect x="78" y="70" width="46" height="34" rx="8" fill="#f9e79f" transform="rotate(-8 101 87)"/>
    <rect x="798" y="88" width="54" height="38" rx="8" fill="#fde0ec" transform="rotate(9 825 107)"/>
    <rect x="808" y="408" width="58" height="42" rx="8" fill="#d9f3e1" transform="rotate(-6 837 429)"/>
    <rect x="92" y="414" width="58" height="42" rx="8" fill="#dcecfa" transform="rotate(5 121 435)"/>
    <circle cx="185" cy="112" r="7" fill="#ff64c8"/>
    <circle cx="745" cy="102" r="6" fill="#2a9d99"/>
    <circle cx="835" cy="344" r="5" fill="#dd5b00"/>
    <circle cx="148" cy="340" r="5" fill="#7b3ff2"/>
  </g>
  <path d="M126 182C196 126 287 128 344 170C420 225 480 206 536 162C589 120 666 117 724 158C776 195 812 196 848 174" fill="none" stroke="#d6b6f6" stroke-width="2" stroke-dasharray="4 10" opacity="0.48"/>
  <path d="M120 368C212 336 259 376 333 412C409 449 480 440 552 392C625 343 694 339 826 374" fill="none" stroke="#dcecfa" stroke-width="2" stroke-dasharray="3 11" opacity="0.5"/>

  <g filter="url(#shadow)">
    <rect x="148" y="92" width="664" height="388" rx="18" fill="#ffffff" stroke="#e5e3df"/>
    <rect x="148" y="92" width="190" height="388" rx="18" fill="#f6f5f4"/>
    <path d="M338 93v386" stroke="#e5e3df"/>
    <g transform="translate(174 122)">
      <rect width="40" height="40" rx="10" fill="#0a1530"/>
      <path d="M13 20h14M20 13v14" stroke="#fff" stroke-width="2" stroke-linecap="round"/>
      <text x="54" y="17" font-family="Inter,Arial,sans-serif" font-size="16" font-weight="700" fill="#1a1a1a">SparkWeave</text>
      <text x="54" y="36" font-family="Inter,Arial,sans-serif" font-size="12" fill="#787671">学习空间</text>
    </g>
    <g transform="translate(174 196)" font-family="Inter,Arial,sans-serif">
      <rect width="138" height="34" rx="8" fill="#ffffff"/>
      <circle cx="18" cy="17" r="5" fill="#5645d4"/>
      <text x="34" y="22" font-size="13" font-weight="600" fill="#1a1a1a">当前对话</text>
      <rect y="45" width="138" height="34" rx="8" fill="transparent"/>
      <circle cx="18" cy="62" r="5" fill="#2a9d99"/>
      <text x="34" y="67" font-size="13" fill="#5d5b54">导学路线</text>
      <rect y="90" width="138" height="34" rx="8" fill="transparent"/>
      <circle cx="18" cy="107" r="5" fill="#dd5b00"/>
      <text x="34" y="112" font-size="13" fill="#5d5b54">学习画像</text>
    </g>

    <g transform="translate(372 122)" font-family="Inter,Arial,sans-serif">
      <text x="0" y="0" dominant-baseline="hanging" font-size="28" font-weight="700" fill="#1a1a1a">机器学习补基计划</text>
      <text x="0" y="44" font-size="14" fill="#787671">根据薄弱点、目标和最近练习自动整理。</text>
      <rect x="0" y="82" width="382" height="66" rx="12" fill="#f9e79f"/>
      <text x="22" y="108" font-size="15" font-weight="700" fill="#37352f">今天先做这一步</text>
      <text x="22" y="132" font-size="13" fill="#5d5b54">梯度下降直观理解 · 10 分钟</text>
      <rect x="0" y="170" width="178" height="96" rx="12" fill="#dcecfa"/>
      <text x="20" y="200" font-size="15" font-weight="700" fill="#37352f">图解</text>
      <text x="20" y="226" font-size="13" fill="#5d5b54">概念关系与关键步骤</text>
      <rect x="204" y="170" width="178" height="96" rx="12" fill="#fde0ec"/>
      <text x="224" y="200" font-size="15" font-weight="700" fill="#37352f">练习</text>
      <text x="224" y="226" font-size="13" fill="#5d5b54">选择、判断、填空</text>
      <rect x="0" y="288" width="382" height="54" rx="12" fill="#f6f5f4" stroke="#e5e3df"/>
      <circle cx="28" cy="315" r="8" fill="#1aae39"/>
      <text x="48" y="321" font-size="13" font-weight="600" fill="#37352f">画像已更新：概念边界仍需确认</text>
    </g>
  </g>
</svg>
