<svg xmlns="http://www.w3.org/2000/svg" viewBox="0 0 720 420" role="img" aria-labelledby="title desc">
  <title id="title">SparkWeave adaptive course map</title>
  <desc id="desc">A pastel course map illustration with connected learning cards.</desc>
  <rect width="720" height="420" rx="24" fill="#f8f5e8"/>
  <g font-family="Inter,Arial,sans-serif">
    <rect x="72" y="70" width="156" height="92" rx="14" fill="#dcecfa" stroke="#e5e3df"/>
    <text x="94" y="108" font-size="16" font-weight="700" fill="#37352f">前测</text>
    <text x="94" y="134" font-size="13" fill="#5d5b54">定位概念卡点</text>

    <rect x="282" y="52" width="156" height="92" rx="14" fill="#f9e79f" stroke="#e5e3df"/>
    <text x="304" y="90" font-size="16" font-weight="700" fill="#37352f">补基</text>
    <text x="304" y="116" font-size="13" fill="#5d5b54">图解 + 短练</text>

    <rect x="492" y="82" width="156" height="92" rx="14" fill="#fde0ec" stroke="#e5e3df"/>
    <text x="514" y="120" font-size="16" font-weight="700" fill="#37352f">实践</text>
    <text x="514" y="146" font-size="13" fill="#5d5b54">任务式应用</text>

    <rect x="177" y="246" width="156" height="92" rx="14" fill="#d9f3e1" stroke="#e5e3df"/>
    <text x="199" y="284" font-size="16" font-weight="700" fill="#37352f">反馈</text>
    <text x="199" y="310" font-size="13" fill="#5d5b54">对错与反思</text>

    <rect x="387" y="228" width="156" height="92" rx="14" fill="#e6e0f5" stroke="#e5e3df"/>
    <text x="409" y="266" font-size="16" font-weight="700" fill="#37352f">画像</text>
    <text x="409" y="292" font-size="13" fill="#5d5b54">动态调整路线</text>
  </g>
  <g fill="none" stroke="#5645d4" stroke-width="3" stroke-linecap="round" stroke-dasharray="7 9" opacity="0.58">
    <path d="M228 116 C250 108 258 104 282 100"/>
    <path d="M438 100 C464 104 476 112 492 122"/>
    <path d="M562 174 C546 220 516 229 512 228"/>
    <path d="M387 286 C368 296 351 300 333 297"/>
    <path d="M222 246 C180 212 157 185 150 162"/>
  </g>
  <circle cx="150" cy="116" r="12" fill="#0075de"/>
  <circle cx="360" cy="98" r="12" fill="#dd5b00"/>
  <circle cx="570" cy="128" r="12" fill="#ff64c8"/>
  <circle cx="255" cy="292" r="12" fill="#1aae39"/>
  <circle cx="465" cy="274" r="12" fill="#7b3ff2"/>
</svg>
