<svg width="420" height="360" viewBox="0 0 420 360" fill="none" xmlns="http://www.w3.org/2000/svg">
  <defs>
    <pattern id="boardDots" width="12" height="12" patternUnits="userSpaceOnUse">
      <circle cx="2" cy="2" r="1.2" fill="#111" opacity=".16"/>
    </pattern>
    <style>
      .line{stroke:#111;stroke-width:5;stroke-linecap:round;stroke-linejoin:round}
      .thin{stroke:#111;stroke-width:3;stroke-linecap:round;stroke-linejoin:round}
    </style>
  </defs>
  <rect width="420" height="360" rx="8" fill="#FCFBF8"/>
  <circle cx="72" cy="56" r="14" fill="#6A96F8"/>
  <circle cx="349" cy="78" r="17" fill="#F5BC2A"/>
  <path d="M47 114c18-21 38-22 55-7" class="thin"/>
  <rect x="114" y="52" width="218" height="190" rx="10" fill="#fff" class="line"/>
  <rect x="135" y="74" width="42" height="42" rx="4" fill="#FF735C"/>
  <rect x="196" y="103" width="44" height="44" rx="4" fill="#B8A4FF"/>
  <rect x="260" y="89" width="42" height="42" rx="4" fill="#62C084"/>
  <path d="M151 209h139M151 209V145" class="line"/>
  <rect x="173" y="185" width="17" height="24" fill="#B8A4FF"/>
  <rect x="205" y="170" width="18" height="39" fill="#F5BC2A"/>
  <rect x="247" y="151" width="19" height="58" fill="#69C58A"/>
  <path d="M164 172l45-30 27 13 55-45" class="line"/>
  <path d="M291 110l-7 1M291 110l-4 7" class="thin"/>
  <path d="M298 171h39M298 190h31" class="thin"/>
  <ellipse cx="103" cy="321" rx="58" ry="8" fill="url(#boardDots)"/>
  <ellipse cx="327" cy="321" rx="64" ry="8" fill="url(#boardDots)"/>
  <path d="M80 169c-17 16-25 41-23 89v38c0 15 9 24 24 24s24-9 24-24v-62c10-13 23-31 42-55 9-12 8-26-2-34-11-8-23-5-33 6-13 16-23 25-32 28" fill="#fff" class="line"/>
  <path d="M83 150c-25 10-39 31-36 56 4 28 25 47 54 49 30 3 58-16 67-44 9-27-2-55-28-67-19-9-40-7-57 6Z" fill="#fff" class="line"/>
  <path d="M56 181c3-30 28-48 58-43 11-21 42-22 57-2 24 3 40 29 29 50-27-13-52-17-83-13-23 3-43 6-61 8Z" fill="#111"/>
  <circle cx="95" cy="204" r="4" fill="#111"/>
  <path d="M112 211c5 9 5 16 0 22" class="thin"/>
  <path d="M91 232c11 9 26 9 37 0" class="thin"/>
  <path d="M137 166c23-25 49-45 77-61" class="line"/>
  <path d="M214 105c11-9 25-8 34 2 9 10 8 24-3 33-11 10-25 9-34-1" fill="#fff" class="line"/>
  <path d="M294 180c-17 16-26 45-25 83v35c0 15 9 24 24 24s24-9 24-24v-63c8-10 20-19 37-30 12-8 15-23 8-33-8-12-23-13-36-5-13 9-23 14-32 17" fill="#fff" class="line"/>
  <path d="M303 151c-25 12-38 35-33 61 5 28 29 46 58 47 32 0 59-22 66-51 6-27-8-53-34-65-20-8-40-5-57 8Z" fill="#fff" class="line"/>
  <path d="M316 137c1-26 24-43 49-38 18-16 47-6 55 16 20 8 29 33 18 52-28-15-54-22-88-21-13 0-24-3-34-9Z" fill="#111"/>
  <circle cx="323" cy="205" r="4" fill="#111"/>
  <path d="M340 213c5 8 5 16 0 22" class="thin"/>
  <path d="M321 235c12 9 26 9 39 0" class="thin"/>
  <path d="M319 198c22-11 45-18 68-21" class="line"/>
  <path d="M385 173c11-5 24 1 27 13 3 11-5 21-18 22-12 1-20-8-19-20" fill="#fff" class="line"/>
</svg>
