<svg width="420" height="360" viewBox="0 0 420 360" fill="none" xmlns="http://www.w3.org/2000/svg">
  <defs>
    <pattern id="deskDots" width="12" height="12" patternUnits="userSpaceOnUse">
      <circle cx="2" cy="2" r="1.2" fill="#111" opacity=".16"/>
    </pattern>
    <style>
      .line{stroke:#111;stroke-width:5;stroke-linecap:round;stroke-linejoin:round}
      .thin{stroke:#111;stroke-width:3;stroke-linecap:round;stroke-linejoin:round}
    </style>
  </defs>
  <rect width="420" height="360" rx="8" fill="#FCFBF8"/>
  <circle cx="335" cy="64" r="16" fill="#F5BC2A"/>
  <rect x="52" y="60" width="72" height="48" rx="8" fill="#fff" class="line"/>
  <circle cx="78" cy="84" r="12" fill="#FF715B"/>
  <path d="M97 78h16M97 93h13" class="thin"/>
  <path d="M283 101c21-17 45-17 68 0" class="thin"/>
  <ellipse cx="217" cy="319" rx="130" ry="10" fill="url(#deskDots)"/>
  <path d="M128 261h185" class="line"/>
  <path d="M112 261l-25 70M331 261l27 70" class="line"/>
  <path d="M123 296h208" class="thin"/>
  <rect x="144" y="181" width="146" height="88" rx="8" fill="#fff" class="line"/>
  <path d="M144 269h188" class="line"/>
  <rect x="202" y="216" width="32" height="32" rx="4" fill="#B9A4FF" class="line"/>
  <path d="M210 241v-18l17 18v-18" class="thin"/>
  <path d="M318 200h34v42h-34z" fill="#fff" class="line"/>
  <path d="M352 211c14 1 14 19 0 20" class="thin"/>
  <path d="M165 139c-27 13-43 40-41 70 3 35 30 61 68 65 40 4 76-18 90-53 13-31 2-66-29-84-25-15-60-14-88 2Z" fill="#fff" class="line"/>
  <path d="M142 168c-7-32 18-58 52-55 13-24 52-24 70 0 30 4 50 34 36 62-28-14-55-18-88-13-25 4-48 6-70 6Z" fill="#111"/>
  <circle cx="187" cy="202" r="4" fill="#111"/>
  <circle cx="219" cy="201" r="4" fill="#111"/>
  <path d="M207 209c-6 9-5 18 2 24" class="thin"/>
  <path d="M187 242c13 9 28 9 42-1" class="thin"/>
  <path d="M139 231c-28 9-43 26-45 52-1 17 12 28 28 22 18-7 32-27 44-51" fill="#fff" class="line"/>
  <path d="M274 231c27 10 43 29 45 55 2 17-12 28-29 21-18-8-31-30-41-54" fill="#fff" class="line"/>
  <rect x="267" y="122" width="70" height="40" rx="8" fill="#DCECFB" class="line"/>
  <path d="M286 140h31M286 154h22" class="thin"/>
</svg>
