<svg width="320" height="320" viewBox="0 0 320 320" xmlns="http://www.w3.org/2000/svg">
  <rect width="320" height="320" fill="transparent"/>
  <g fill="none" stroke="#111" stroke-width="6" stroke-linecap="round" stroke-linejoin="round">
    <path d="M58 240h204"/>
    <rect x="66" y="166" width="188" height="74" rx="16" fill="#fff"/>
    <path d="M91 166v-28c0-17 14-31 31-31h76c17 0 31 14 31 31v28"/>
    <path d="M108 166c0-19 15-34 34-34h36c19 0 34 15 34 34"/>
    <circle cx="160" cy="138" r="34" fill="#fff"/>
    <path d="M130 133c8-25 46-35 63-9"/>
    <path d="M148 140c6 5 18 5 24 0"/>
    <path d="M131 140h.1M189 140h.1"/>
    <path d="M231 54c-22 23-6 62 27 62-16 15-43 15-59-1-18-18-15-48 7-61 8-5 17-6 25 0z"/>
    <path d="M82 57l7 13 15 2-11 10 3 15-14-7-13 7 3-15-11-10 15-2z"/>
  </g>
  
</svg>