<svg width="420" height="360" viewBox="0 0 420 360" fill="none" xmlns="http://www.w3.org/2000/svg">
  <defs>
    <pattern id="readerDots" width="12" height="12" patternUnits="userSpaceOnUse">
      <circle cx="2" cy="2" r="1.2" fill="#111" opacity=".18"/>
    </pattern>
    <style>
      .line{stroke:#111;stroke-width:5;stroke-linecap:round;stroke-linejoin:round}
      .thin{stroke:#111;stroke-width:3;stroke-linecap:round;stroke-linejoin:round}
    </style>
  </defs>
  <rect width="420" height="360" rx="8" fill="#FCFBF8"/>
  <ellipse cx="214" cy="319" rx="132" ry="10" fill="url(#readerDots)"/>
  <rect x="42" y="58" width="92" height="54" rx="8" fill="#fff" class="line"/>
  <circle cx="69" cy="85" r="13" fill="#57C68B"/>
  <path d="M94 77h25M94 94h18" class="thin"/>
  <rect x="304" y="44" width="78" height="64" rx="8" fill="#fff" class="line"/>
  <rect x="324" y="63" width="28" height="22" rx="4" fill="#FF715B"/>
  <path d="M360 67h9M360 82h9" class="thin"/>
  <circle cx="161" cy="42" r="14" fill="#F5BC2A"/>
  <path d="M292 139c14-19 35-23 55-12" class="thin"/>
  <path d="M137 151c-34 29-47 76-34 117 14 42 52 59 98 50 34-7 58-31 67-61 10-33 2-68-23-91-27-24-72-34-108-15Z" fill="#fff" class="line"/>
  <path d="M234 151c43 7 77 38 85 78 8 45-22 88-70 91-39 3-74-22-88-59-13-35-2-76 27-97 14-10 29-14 46-13Z" fill="#fff" class="line"/>
  <path d="M138 279c-17 15-14 37 13 44 26 7 72 4 88-9 12-10 6-28-12-32l-51-13-38 10Z" fill="#111" class="line"/>
  <path d="M255 281c-21 15-18 36 10 43 27 7 70 2 89-11 13-10 7-28-12-33l-50-13-37 14Z" fill="#111" class="line"/>
  <path d="M170 102c-28 13-45 39-43 70 2 35 27 61 63 66 37 5 75-13 92-45 17-31 11-69-17-88-25-18-65-20-95-3Z" fill="#fff" class="line"/>
  <path d="M145 128c-6-33 19-61 55-58 15-27 58-26 77 1 34 3 55 39 38 68-34-18-66-23-102-18-25 4-47 7-68 7Z" fill="#111"/>
  <circle cx="188" cy="165" r="4" fill="#111"/>
  <circle cx="222" cy="164" r="4" fill="#111"/>
  <path d="M210 171c-7 9-7 18 1 25" class="thin"/>
  <path d="M188 205c13 9 29 9 44-1" class="thin"/>
  <path d="M112 216c-19 11-31 30-33 52-2 18 12 30 29 23 19-8 32-30 40-50" fill="#fff" class="line"/>
  <path d="M304 217c20 10 33 30 36 54 2 19-12 31-30 24-20-8-33-31-42-52" fill="#fff" class="line"/>
  <path d="M134 198c42-11 86-8 133 4l-18 103c-38-15-76-15-116 0l1-107Z" fill="#fff" class="line"/>
  <path d="M268 202c49-12 96-11 142 2l-22 103c-43-14-86-14-139-2l19-103Z" fill="#fff" class="line"/>
  <path d="M258 207v91" class="thin"/>
  <rect x="304" y="222" width="66" height="24" rx="4" fill="#B9A4FF" transform="rotate(-6 304 222)"/>
  <path d="M158 226h61M158 247h48M289 265h62M288 284h45" class="thin" opacity=".55"/>
</svg>
